<svg xmlns="http://www.w3.org/2000/svg" viewBox="0 0 100 100">
  <!-- Basisgehäuse (rot) -->
  <circle cx="50" cy="50" r="40" fill="#e74c3c" stroke="#c0392b" stroke-width="3"/>
  
  <!-- Wählscheibe (weiß) -->
  <circle cx="50" cy="50" r="25" fill="#ecf0f1" stroke="#bdc3c7" stroke-width="2"/>
  
  <!-- Löcher der Wählscheibe -->
  <circle cx="50" cy="30" r="3" fill="#7f8c8d"/>
  <circle cx="65" cy="40" r="3" fill="#7f8c8d"/>
  <circle cx="65" cy="60" r="3" fill="#7f8c8d"/>
  <circle cx="50" cy="70" r="3" fill="#7f8c8d"/>
  <circle cx="35" cy="60" r="3" fill="#7f8c8d"/>
  <circle cx="35" cy="40" r="3" fill="#7f8c8d"/>
  
  <!-- Hörer (schwarz) -->
  <path d="M20 20 L40 20 Q50 25 60 20 L80 20 Q85 30 80 40 L60 40 Q50 35 40 40 L20 40 Q15 30 20 20 Z" fill="#2c3e50"/>
  
  <!-- Kabel (gewellte Linie) -->
  <path d="M80 30 Q85 25 90 30 Q95 35 100 30" stroke="#2c3e50" stroke-width="3" fill="none"/>
</svg>
